<svg width="62" height="62" xmlns="http://www.w3.org/2000/svg" fill="none">
 <g>
  <title>Layer 1</title>
  <path id="svg_1" fill="#E2E5E7" d="m15.5,0c-2.1313,0 -3.875,1.74375 -3.875,3.875l0,54.25c0,2.1312 1.7437,3.875 3.875,3.875l38.75,0c2.1312,0 3.875,-1.7438 3.875,-3.875l0,-42.625l-15.5,-15.5l-27.125,0z"/>
  <path id="svg_2" fill="#B0B7BD" d="m46.5,15.5l11.625,0l-15.5,-15.5l0,11.625c0,2.1313 1.7437,3.875 3.875,3.875z"/>
  <path id="svg_3" fill="#CAD1D8" d="m58.125,27.125l-11.625,-11.625l11.625,0l0,11.625z"/>
  <path id="svg_4" fill="#20a464" d="m50.375,50.375c0,1.0656 -0.8719,1.9375 -1.9375,1.9375l-42.625,0c-1.06563,0 -1.9375,-0.8719 -1.9375,-1.9375l0,-19.375c0,-1.0656 0.87187,-1.9375 1.9375,-1.9375l42.625,0c1.0656,0 1.9375,0.8719 1.9375,1.9375l0,19.375z"/>
  <path id="svg_8" fill="#CAD1D8" d="m48.4375,52.3125l-36.8125,0l0,1.9375l36.8125,0c1.0656,0 1.9375,-0.8719 1.9375,-1.9375l0,-1.9375c0,1.0656 -0.8719,1.9375 -1.9375,1.9375z"/>
  <path transform="rotate(53.1735 14.29 41.0092)" stroke="null" id="svg_14" d="m9.85056,40.22627l8.87335,0l0,0c2.02769,-0.08061 2.15365,0.07822 2.10477,0.77771c-0.04888,0.69949 -0.71027,0.84327 -2.10477,0.77771l-8.87335,0l0,0c-1.69568,0.11934 -2.14233,-0.12028 -2.10477,-0.77771c0.03755,-0.65743 0.29952,-0.75562 2.10477,-0.77771z" fill="white"/>
  <path transform="rotate(127.287 14.178 41.0037)" stroke="null" id="svg_16" d="m9.74306,40.21616l8.87334,0l0,0c1.92126,-0.21141 2.10477,0.34819 2.10477,0.77771c0,0.42952 -0.30111,1.04746 -2.10477,0.77771l-8.87334,0l0,0c-1.69569,0.11934 -2.06878,-0.21849 -2.10478,-0.77771c-0.03599,-0.55922 0.17304,-0.89568 2.10478,-0.77771z" fill="white"/>
  <path transform="rotate(89.7602 20.6765 41.0242)" stroke="null" id="svg_17" d="m16.9762,40.23663l7.40354,0l0,0c1.60302,-0.21141 1.75613,0.34819 1.75613,0.77771c0,0.42952 -0.25123,1.04746 -1.75613,0.77771l-7.40354,0l0,0c-1.41481,0.11934 -1.7261,-0.21849 -1.75614,-0.77771c-0.03003,-0.55922 0.14438,-0.89568 1.75614,-0.77771z" fill="white"/>
  <path transform="rotate(-179.892 23.5393 45.6835)" stroke="null" id="svg_18" d="m21.03114,44.89588l5.01829,0l0,0c1.08656,-0.21141 1.19035,0.34819 1.19035,0.77771c0,0.42952 -0.17029,1.04746 -1.19035,0.77771l-5.01829,0l0,0c-0.95899,0.11934 -1.16999,-0.21849 -1.19035,-0.77771c-0.02036,-0.55922 0.09786,-0.89568 1.19035,-0.77771z" fill="white"/>
  <path transform="rotate(53.1735 40.9203 41.0092)" stroke="null" id="svg_19" d="m36.48083,40.22627l8.87335,0l0,0c2.0277,-0.08061 2.15365,0.07822 2.10477,0.77771c-0.04887,0.6995 -0.71027,0.84328 -2.10477,0.77771l-8.87335,0l0,0c-1.69568,0.11935 -2.14232,-0.12027 -2.10477,-0.77771c0.03756,-0.65743 0.29952,-0.75561 2.10477,-0.77771z" fill="white"/>
  <path transform="rotate(127.287 40.769 41.0037)" stroke="null" id="svg_20" d="m36.33407,40.21616l8.87334,0l0,0c1.92126,-0.21141 2.10477,0.34819 2.10477,0.77771c0,0.42952 -0.30111,1.04746 -2.10477,0.77771l-8.87334,0l0,0c-1.69569,0.11934 -2.06878,-0.21849 -2.10478,-0.77771c-0.03599,-0.55922 0.17304,-0.89568 2.10478,-0.77771z" fill="white"/>
  <path id="svg_22" d="m28.07473,44.51602c-0.49661,-0.6772 0.4201,-1.45646 1.10676,-0.81495c0.68666,0.64151 1.32064,1.43294 2.59786,1.42349c1.27722,-0.00946 2.13879,-0.37971 2.17082,-1.81495c0.03203,-1.43524 -0.87203,-1.67696 -2.34875,-1.9573c-1.47672,-0.28034 -3.12302,-0.68084 -3.38078,-3.0605c-0.01312,-1.25465 1.30494,-2.9693 3.59431,-2.84698c2.28937,0.12232 3.20375,1.54497 3.41637,2.02847c0.21262,0.4835 -0.63617,1.09804 -1.18739,0.63712c-0.55122,-0.46092 -1.60048,-1.2908 -2.26457,-1.25511c-0.66408,0.03569 -1.9094,0.17515 -2.05795,1.24555c-0.14856,1.0704 0.2599,1.43821 2.41382,1.89913c2.15393,0.46092 3.31907,1.37246 3.30961,3.66548c-0.00946,2.29302 -2.03604,2.7757 -3.30961,2.81139c-1.81898,0.12232 -3.3833,-0.60645 -4.0605,-1.96085z" opacity="NaN" stroke="null" fill="white"/>
 </g>
</svg>